<?xml version="1.0" encoding="UTF-8"?>
<svg version="1.1" xmlns="http://www.w3.org/2000/svg" width="360" height="360">
<path d="M0 0 C2.33294775 -0.04241723 4.66702567 -0.04092937 7 0 C7.33 0.33 7.66 0.66 8 1 C9.70796393 1.09639723 11.41995585 1.12187407 13.13063717 1.12025452 C14.2495648 1.12162887 15.36849243 1.12300322 16.52132696 1.12441921 C17.76604428 1.12082425 19.0107616 1.11722929 20.29319763 1.11352539 C22.25859303 1.11374868 22.25859303 1.11374868 24.26369339 1.11397648 C27.91749121 1.11427348 31.5712569 1.10831642 35.22504723 1.10140657 C39.1589815 1.09505697 43.09291687 1.09446537 47.02685547 1.0932312 C53.84873918 1.0903387 60.67061214 1.08388993 67.49249077 1.07516479 C77.35807483 1.06263909 87.22365487 1.05654064 97.08924557 1.05223143 C113.09669097 1.04515688 129.10413134 1.034349 145.11157227 1.02050781 C146.07046948 1.01968 147.0293667 1.01885219 148.01732142 1.01799929 C155.7979393 1.01125446 163.57855701 1.00432985 171.35917473 0.99739647 C178.15880196 0.99134463 184.95842925 0.98536413 191.75805664 0.97949219 C192.71548869 0.97866406 193.67292074 0.97783593 194.65936588 0.97698271 C210.60388071 0.96331288 226.54839561 0.95354501 242.49291474 0.94658184 C252.33766948 0.94209162 262.1824093 0.93403301 272.02715708 0.92143703 C278.76910871 0.91303246 285.5110569 0.90812545 292.25301342 0.90601182 C296.14786419 0.90466226 300.04269564 0.90162471 303.93754005 0.89425278 C308.15164208 0.88630643 312.36570927 0.88599641 316.57981873 0.88647461 C317.82230533 0.88287965 319.06479193 0.87928469 320.34492964 0.87558079 C321.46646501 0.87695514 322.58800039 0.87832949 323.74352169 0.87974548 C324.71734199 0.87882369 325.69116228 0.8779019 326.69449228 0.87695217 C329 1 329 1 331 2 C332.00241417 7.68605258 332.14480772 13.27387456 332.13371277 19.03488159 C332.13597833 19.91010251 332.13824388 20.78532343 332.14057809 21.6870662 C332.14687627 24.6011242 332.14609146 27.51513519 332.14526367 30.42919922 C332.14825757 32.52563029 332.15166063 34.6220608 332.15544128 36.7184906 C332.1642569 42.39772505 332.16661823 48.07694442 332.16725707 53.75618505 C332.16820766 58.49592057 332.17188725 63.23565258 332.17542917 67.97538674 C332.18356261 79.14928307 332.18601422 90.32317136 332.18530273 101.49707031 C332.18470057 113.03746129 332.19528244 124.57780573 332.2110464 136.11818492 C332.22409602 146.02318094 332.2294878 155.92816169 332.22884732 165.83316624 C332.2285918 171.7509043 332.23147366 177.6686009 332.24202538 183.58633041 C332.25166429 189.14312126 332.25181467 194.6998306 332.24450874 200.25662422 C332.243458 202.30051479 332.24585456 204.34441033 332.2518692 206.38829231 C332.25952251 209.16796598 332.25498914 211.9473533 332.24723816 214.72702026 C332.25238172 215.54450961 332.25752529 216.36199896 332.26282471 217.20426071 C332.22827244 222.77172756 332.22827244 222.77172756 330 225 C327.62280929 225.24839699 327.62280929 225.24839699 324.5689373 225.24609566 C322.82823316 225.2520688 322.82823316 225.2520688 321.05236328 225.25816262 C319.76639413 225.25233693 318.48042497 225.24651125 317.15548706 225.24050903 C315.78432642 225.24138047 314.4131661 225.2431303 313.04200757 225.24568737 C309.26116149 225.25017711 305.4804279 225.24213502 301.69959617 225.23213124 C297.62733691 225.22352236 293.55508439 225.22641508 289.4828186 225.22793579 C282.42302819 225.22898627 275.36327464 225.22269269 268.3034935 225.21146011 C258.09614553 225.1952301 247.88881546 225.18999967 237.68145598 225.18748413 C221.12209986 225.18310309 204.56276341 225.16978293 188.00341797 225.15087891 C171.91422626 225.13253067 155.82503989 225.118369 139.73583984 225.10986328 C138.74468276 225.10933783 137.75352567 225.10881239 136.73233353 225.10827102 C131.76016317 225.10566101 126.78799278 225.10313358 121.81582236 225.10064721 C80.54386789 225.07990199 39.27193507 225.04466537 -2 225 C-4.29822277 220.88028397 -4.27132735 217.21044525 -4.23377991 212.58694458 C-4.23478319 211.73021428 -4.23578647 210.87348398 -4.23682016 209.99079216 C-4.23777408 207.11502585 -4.22442057 204.23950294 -4.21118164 201.36376953 C-4.20898079 199.30397617 -4.20767502 197.24418169 -4.2071991 195.18438721 C-4.20426338 190.74600229 -4.19500789 186.30769088 -4.18089485 181.86932755 C-4.15865246 174.85232883 -4.15054245 167.8353575 -4.14439392 160.81832886 C-4.13300606 149.71914159 -4.11227602 138.61999477 -4.08749622 127.52083004 C-4.04320042 107.64682684 -4.00998487 87.77280966 -3.98725218 67.89877021 C-3.97884114 60.9224215 -3.96481183 53.94611293 -3.94627964 46.96978402 C-3.9356365 42.62978418 -3.9290527 38.28978472 -3.92347908 33.9497757 C-3.92000849 31.93659205 -3.91479432 29.92341054 -3.90771103 27.91023636 C-3.89825608 25.16248369 -3.89498277 22.4147895 -3.89320374 19.66702271 C-3.88892665 18.87012909 -3.88464957 18.07323548 -3.88024288 17.25219357 C-3.88453449 13.05494298 -4.17010953 9.13546441 -5 5 C-4.01 5 -3.02 5 -2 5 C-2 4.34 -2 3.68 -2 3 C-1.01 3 -0.02 3 1 3 C0.67 2.01 0.34 1.02 0 0 Z " fill="#F06727" transform="translate(16,67)"/>
<path d="M0 0 C110.22 0 220.44 0 334 0 C335.15705421 26.61224679 335.15705421 26.61224679 335.16796875 36.11328125 C335.17129715 37.18579636 335.17462555 38.25831146 335.17805481 39.36332703 C335.18301681 41.57139671 335.18546657 43.77947358 335.18530273 45.98754883 C335.18754665 49.38309278 335.20596481 52.77833884 335.22460938 56.17382812 C335.22753431 58.34114474 335.22952511 60.50846287 335.23046875 62.67578125 C335.23765427 63.68699539 335.24483978 64.69820953 335.25224304 65.74006653 C335.24916641 66.66671616 335.24608978 67.59336578 335.24291992 68.5480957 C335.24434494 69.3625264 335.24576996 70.17695709 335.24723816 71.0160675 C335 73 335 73 333 75 C330.62280929 75.24839699 330.62280929 75.24839699 327.5689373 75.24609566 C325.82823316 75.2520688 325.82823316 75.2520688 324.05236328 75.25816262 C322.76639413 75.25233693 321.48042497 75.24651125 320.15548706 75.24050903 C318.78432642 75.24138047 317.4131661 75.2431303 316.04200757 75.24568737 C312.26116149 75.25017711 308.4804279 75.24213502 304.69959617 75.23213124 C300.62733691 75.22352236 296.55508439 75.22641508 292.4828186 75.22793579 C285.42302819 75.22898627 278.36327464 75.22269269 271.3034935 75.21146011 C261.09614553 75.1952301 250.88881546 75.18999967 240.68145598 75.18748413 C224.12209986 75.18310309 207.56276341 75.16978293 191.00341797 75.15087891 C174.91422626 75.13253067 158.82503989 75.118369 142.73583984 75.10986328 C141.74468276 75.10933783 140.75352567 75.10881239 139.73233353 75.10827102 C134.76016317 75.10566101 129.78799278 75.10313358 124.81582236 75.10064721 C83.54386789 75.07990199 42.27193507 75.04466537 1 75 C-10.18133365 52.6373327 -0.35210905 24.99974261 0 0 Z " fill="#028442" transform="translate(13,217)"/>
<path d="M0 0 C0.33 0 0.66 0 1 0 C1 19.8 1 39.6 1 60 C111.22 60 221.44 60 335 60 C336.08949924 64.35799695 336.13265635 68.35629316 336.11352539 72.80761719 C336.11367142 73.69577621 336.11381744 74.58393524 336.1139679 75.49900818 C336.1132718 78.43165538 336.10549357 81.3642389 336.09765625 84.296875 C336.09579099 86.3314002 336.0943676 88.36592585 336.09336853 90.40045166 C336.08955184 95.75324749 336.07972876 101.10601616 336.06866455 106.45880127 C336.05843222 111.92174919 336.053867 117.38470151 336.04882812 122.84765625 C336.03810576 133.5651161 336.02103948 144.28255579 336 155 C335.67 155 335.34 155 335 155 C335 148.07 335 141.14 335 134 C224.78 134 114.56 134 1 134 C1 156.77 1 179.54 1 203 C0.67 203 0.34 203 0 203 C0 136.01 0 69.02 0 0 Z " fill="#F0EFEE" transform="translate(12,83)"/>
<path d="M0 0 C0 0.66 0 1.32 0 2 C-1.66675781 2.12955078 -1.66675781 2.12955078 -3.3671875 2.26171875 C-12.11632643 3.04600215 -19.52764635 3.99904736 -27 9 C-27.58007812 9.3815625 -28.16015625 9.763125 -28.7578125 10.15625 C-34.66435073 14.5490523 -38.10319962 21.02278274 -40 28 C-40.93539707 37.96444034 -40.93953784 46.53615857 -35 55 C-34.278125 56.0725 -33.55625 57.145 -32.8125 58.25 C-23.13115023 67.71620866 -12.13219842 69.75818898 1 70 C1.66 69.67 2.32 69.34 3 69 C3.99 69.33 4.98 69.66 6 70 C6.33 69.34 6.66 68.68 7 68 C7.66 68.66 8.32 69.32 9 70 C11.67065943 70.30979664 11.67065943 70.30979664 14.84570312 70.26501465 C16.09085693 70.27328781 17.33601074 70.28156097 18.61889648 70.29008484 C20.00634777 70.28926018 21.39379895 70.28826252 22.78125 70.28710938 C24.23641342 70.29313084 25.69157334 70.30005439 27.14672852 70.30781555 C30.28427149 70.32272638 33.42175058 70.33145915 36.55932617 70.33552551 C41.51682945 70.34222445 46.47419561 70.36396098 51.43164062 70.38806152 C61.95439502 70.43708358 72.4771784 70.46937636 83 70.5 C94.35880749 70.53305654 105.71756152 70.56891046 117.07628632 70.62413073 C122.00817847 70.64753255 126.93997547 70.66123353 131.87191772 70.66762543 C134.93563677 70.67354769 137.99927827 70.68762962 141.06295776 70.70396996 C142.48760984 70.70986517 143.9122808 70.71231421 145.33694458 70.71113014 C147.27607797 70.70997758 149.21520594 70.72210147 151.15429688 70.73498535 C152.24125854 70.73791847 153.32822021 70.74085159 154.44812012 70.7438736 C157 71 157 71 159 73 C48.78 73 -61.44 73 -175 73 C-175 95.77 -175 118.54 -175 142 C-175.33 142 -175.66 142 -176 142 C-176 95.47 -176 48.94 -176 1 C-138.2539694 0.74922556 -138.2539694 0.74922556 -122.47070312 0.64453125 C-111.56062787 0.57216108 -100.65055275 0.49976998 -89.74047852 0.42724609 C-81.79573341 0.3744341 -73.85098784 0.32169153 -65.90624171 0.26903296 C-61.69808564 0.24113843 -57.48992981 0.21320872 -53.28177452 0.18519592 C-49.32316392 0.15884539 -45.36455271 0.13258748 -41.40594101 0.10640144 C-39.95106165 0.096761 -38.49618252 0.08708636 -37.04130363 0.07737541 C-35.05863886 0.06414668 -33.0759732 0.05105162 -31.0933075 0.03796387 C-29.98254695 0.03058952 -28.8717864 0.02321518 -27.72736645 0.01561737 C-18.48530921 -0.03730424 -9.2422047 0 0 0 Z " fill="#EFF0F0" transform="translate(188,144)"/>
<path d="M0 0 C9.37003018 5.98640817 15.83087197 12.29481708 18.828125 23.16796875 C19.76025363 33.09759158 19.81090729 41.7635841 13.828125 50.16796875 C13.38210937 50.82152344 12.93609375 51.47507813 12.4765625 52.1484375 C7.57059197 58.57553297 0.50660007 62.03610712 -7.171875 64.16796875 C-19.06421057 65.16547402 -27.60972728 63.94671248 -36.98828125 56.33984375 C-44.05473701 49.31131173 -47.39774566 41.87962517 -47.484375 32.04296875 C-47.49720803 25.25073231 -46.9778589 19.9777261 -43.171875 14.16796875 C-42.74777344 13.47445312 -42.32367188 12.7809375 -41.88671875 12.06640625 C-33.24905419 -0.78181903 -14.43718172 -6.92594528 0 0 Z " fill="#E1E9F3" transform="translate(194.171875,148.83203125)"/>
<path d="M0 0 C2.33294775 -0.04241723 4.66702567 -0.04092937 7 0 C7.33 0.33 7.66 0.66 8 1 C9.7097995 1.09730054 11.42365809 1.12371498 13.13622379 1.12304783 C14.81646534 1.1260344 14.81646534 1.1260344 16.53065115 1.12908131 C17.77673271 1.12616847 19.02281428 1.12325563 20.30665588 1.12025452 C21.61833062 1.12110894 22.93000535 1.12196337 24.2814278 1.12284368 C27.93908454 1.12509112 31.59671228 1.12106398 35.25436532 1.11606562 C39.19235319 1.11176485 43.1303393 1.11320728 47.06832886 1.1139679 C53.89676364 1.11449337 60.7251889 1.11134414 67.55362129 1.10573006 C77.42650369 1.09761821 87.29938146 1.09500016 97.17226683 1.09374207 C113.18865902 1.09155105 129.20504612 1.08488962 145.22143555 1.07543945 C160.78393529 1.06626662 176.34643365 1.05918516 191.90893555 1.05493164 C193.34677983 1.05453756 193.34677983 1.05453756 194.81367148 1.05413551 C199.62228771 1.05283051 204.43090395 1.0515668 209.23952019 1.05032361 C249.15968369 1.03994945 289.07984151 1.02232978 329 1 C329 1.99 329 2.98 329 4 C220.1 4 111.2 4 -1 4 C-0.67 27.1 -0.34 50.2 0 74 C163.35 74.495 163.35 74.495 330 75 C330 59.82 330 44.64 330 29 C330.33 22.73 330.66 16.46 331 10 C331.33 10 331.66 10 332 10 C332.18797016 32.02721097 331.56506441 53.96248785 331 76 C220.78 76 110.56 76 -3 76 C-3.33 54.55 -3.66 33.1 -4 11 C-4.33 9.02 -4.66 7.04 -5 5 C-4.01 5 -3.02 5 -2 5 C-2 4.34 -2 3.68 -2 3 C-1.01 3 -0.02 3 1 3 C0.67 2.01 0.34 1.02 0 0 Z " fill="#F19263" transform="translate(16,67)"/>
<path d="M0 0 C110.22 0 220.44 0 334 0 C335.15705421 26.61224679 335.15705421 26.61224679 335.16796875 36.11328125 C335.17129715 37.18579636 335.17462555 38.25831146 335.17805481 39.36332703 C335.18301681 41.57139671 335.18546657 43.77947358 335.18530273 45.98754883 C335.18754665 49.38309278 335.20596481 52.77833884 335.22460938 56.17382812 C335.22753431 58.34114474 335.22952511 60.50846287 335.23046875 62.67578125 C335.23765427 63.68699539 335.24483978 64.69820953 335.25224304 65.74006653 C335.24916641 66.66671616 335.24608978 67.59336578 335.24291992 68.5480957 C335.24434494 69.3625264 335.24576996 70.17695709 335.24723816 71.0160675 C335 73 335 73 333 75 C330.62280929 75.24839699 330.62280929 75.24839699 327.5689373 75.24609566 C325.82823316 75.2520688 325.82823316 75.2520688 324.05236328 75.25816262 C322.76639413 75.25233693 321.48042497 75.24651125 320.15548706 75.24050903 C318.78432642 75.24138047 317.4131661 75.2431303 316.04200757 75.24568737 C312.26116149 75.25017711 308.4804279 75.24213502 304.69959617 75.23213124 C300.62733691 75.22352236 296.55508439 75.22641508 292.4828186 75.22793579 C285.42302819 75.22898627 278.36327464 75.22269269 271.3034935 75.21146011 C261.09614553 75.1952301 250.88881546 75.18999967 240.68145598 75.18748413 C224.12209986 75.18310309 207.56276341 75.16978293 191.00341797 75.15087891 C174.91422626 75.13253067 158.82503989 75.118369 142.73583984 75.10986328 C141.74468276 75.10933783 140.75352567 75.10881239 139.73233353 75.10827102 C134.76016317 75.10566101 129.78799278 75.10313358 124.81582236 75.10064721 C83.54386789 75.07990199 42.27193507 75.04466537 1 75 C1 74.01 1 73.02 1 72 C164.35 72.495 164.35 72.495 331 73 C331.33 50.89 331.66 28.78 332 6 C332.33 4.35 332.66 2.7 333 1 C223.11 1 113.22 1 0 1 C0 0.67 0 0.34 0 0 Z " fill="#539E73" transform="translate(13,217)"/>
<path d="M0 0 C1.90389849 2.85584773 2.69462177 4.9311762 3.625 8.1875 C4.01558594 9.53908203 4.01558594 9.53908203 4.4140625 10.91796875 C4.60742188 11.60503906 4.80078125 12.29210937 5 13 C5.33 10.03 5.66 7.06 6 4 C6.66 4 7.32 4 8 4 C8.33 6.97 8.66 9.94 9 13 C10.32 8.71 11.64 4.42 13 0 C14.10318677 4.41274708 13.64855836 6.40576658 12.5625 10.75 C12.13130859 12.50570312 12.13130859 12.50570312 11.69140625 14.296875 C11.46324219 15.18890625 11.23507813 16.0809375 11 17 C11.72316406 15.71802734 11.72316406 15.71802734 12.4609375 14.41015625 C13.09257812 13.30542969 13.72421875 12.20070312 14.375 11.0625 C15.00148437 9.96035156 15.62796875 8.85820312 16.2734375 7.72265625 C18 5 18 5 20 4 C18.23570801 8.97209562 15.6060834 13.43438061 13 18 C13.61875 17.34 14.2375 16.68 14.875 16 C17 14 17 14 19 14 C19.66 12.68 20.32 11.36 21 10 C21.66 10 22.32 10 23 10 C23 9.34 23 8.68 23 8 C23.99 7.67 24.98 7.34 26 7 C24.59155282 10.21524305 22.89655214 12.32183868 20.375 14.75 C19.74335938 15.36359375 19.11171875 15.9771875 18.4609375 16.609375 C17.97882813 17.06828125 17.49671875 17.5271875 17 18 C17.69867188 17.62746094 18.39734375 17.25492188 19.1171875 16.87109375 C20.02726562 16.39800781 20.93734375 15.92492187 21.875 15.4375 C22.77992188 14.96183594 23.68484375 14.48617187 24.6171875 13.99609375 C25.40351563 13.66738281 26.18984375 13.33867187 27 13 C27.66 13.33 28.32 13.66 29 14 C25 16.66666667 21 19.33333333 17 22 C17.81984375 21.77183594 18.6396875 21.54367188 19.484375 21.30859375 C20.56203125 21.02113281 21.6396875 20.73367187 22.75 20.4375 C23.81734375 20.14746094 24.8846875 19.85742188 25.984375 19.55859375 C29 19 29 19 33 20 C28.38 21.32 23.76 22.64 19 24 C22.63 24.33 26.26 24.66 30 25 C30 25.66 30 26.32 30 27 C26.37 27.33 22.74 27.66 19 28 C23.62 29.32 28.24 30.64 33 32 C28.58725292 33.10318677 26.59423342 32.64855836 22.25 31.5625 C21.07953125 31.27503906 19.9090625 30.98757812 18.703125 30.69140625 C17.81109375 30.46324219 16.9190625 30.23507813 16 30 C19.3 31.98 22.6 33.96 26 36 C25.01 36.495 25.01 36.495 24 37 C21.64018187 36.06421005 19.30368736 35.06652192 17 34 C17.433125 34.40992188 17.86625 34.81984375 18.3125 35.2421875 C18.869375 35.78101563 19.42625 36.31984375 20 36.875 C20.556875 37.40867188 21.11375 37.94234375 21.6875 38.4921875 C23 40 23 40 23 42 C19.18315774 40.44499019 16.80804268 37.96404505 14 35 C14.28875 35.53625 14.5775 36.0725 14.875 36.625 C16.16711808 39.35280484 17.08558592 42.12612718 18 45 C15.02941688 42.23428468 13.02731729 39.50278604 11 36 C11.22816406 36.81984375 11.45632812 37.6396875 11.69140625 38.484375 C11.97886719 39.56203125 12.26632813 40.6396875 12.5625 41.75 C12.85253906 42.81734375 13.14257812 43.8846875 13.44140625 44.984375 C14 48 14 48 13 52 C11.68 47.38 10.36 42.76 9 38 C8.67 41.96 8.34 45.92 8 50 C7.34 50 6.68 50 6 50 C5.67 46.04 5.34 42.08 5 38 C4.01 41.3 3.02 44.6 2 48 C1.67 48 1.34 48 1 48 C1 46.35 1 44.7 1 43 C-0.65 43.66 -2.3 44.32 -4 45 C-2.88786134 41.50470706 -1.68426809 38.25530808 0 35 C-0.69867188 35.721875 -1.39734375 36.44375 -2.1171875 37.1875 C-3.02726563 38.115625 -3.93734375 39.04375 -4.875 40 C-5.77992188 40.928125 -6.68484375 41.85625 -7.6171875 42.8125 C-10 45 -10 45 -12 45 C-10.49055027 41.15776433 -8.23156958 39.48004177 -5 37 C-3.31471312 35.35216394 -1.64302953 33.68997323 0 32 C-3.774543 33.83556543 -7.36287082 35.94322116 -10.9765625 38.07421875 C-11.64429688 38.37972656 -12.31203125 38.68523437 -13 39 C-13.66 38.67 -14.32 38.34 -15 38 C-12.03 36.02 -9.06 34.04 -6 32 C-12.435 32.495 -12.435 32.495 -19 33 C-14.87934234 30.25289489 -10.76120641 29.36034469 -6 28 C-9.96 27.67 -13.92 27.34 -18 27 C-18 26.34 -18 25.68 -18 25 C-14.04 24.67 -10.08 24.34 -6 24 C-10.29 22.68 -14.58 21.36 -19 20 C-18.34 18.35 -17.68 16.7 -17 15 C-16.01 15 -15.02 15 -14 15 C-14.33 14.34 -14.66 13.68 -15 13 C-13.948125 13.433125 -13.948125 13.433125 -12.875 13.875 C-9.94547497 15.02133588 -6.99078347 16.02625654 -4 17 C-4.66 16.38125 -5.32 15.7625 -6 15.125 C-8 13 -8 13 -8 11 C-4.63408134 12.44253657 -2.48952921 14.33264727 0 17 C-0.28875 16.46375 -0.5775 15.9275 -0.875 15.375 C-2.16711808 12.64719516 -3.08558592 9.87387282 -4 7 C-1.02941688 9.76571532 0.97268271 12.49721396 3 16 C2.7834375 15.18015625 2.566875 14.3603125 2.34375 13.515625 C2.0653125 12.43796875 1.786875 11.3603125 1.5 10.25 C1.2215625 9.18265625 0.943125 8.1153125 0.65625 7.015625 C0 4 0 4 0 0 Z " fill="#4B5B81" transform="translate(173,154)"/>
<path d="M0 0 C9.37003018 5.98640817 15.83087197 12.29481708 18.828125 23.16796875 C19.76025363 33.09759158 19.81090729 41.7635841 13.828125 50.16796875 C13.38210937 50.82152344 12.93609375 51.47507813 12.4765625 52.1484375 C7.57059197 58.57553297 0.50660007 62.03610712 -7.171875 64.16796875 C-19.06421057 65.16547402 -27.60972728 63.94671248 -36.98828125 56.33984375 C-44.05473701 49.31131173 -47.39774566 41.87962517 -47.484375 32.04296875 C-47.49720803 25.25073231 -46.9778589 19.9777261 -43.171875 14.16796875 C-42.74777344 13.47445312 -42.32367188 12.7809375 -41.88671875 12.06640625 C-33.24905419 -0.78181903 -14.43718172 -6.92594528 0 0 Z M-24.171875 3.16796875 C-24.171875 3.82796875 -24.171875 4.48796875 -24.171875 5.16796875 C-25.821875 5.16796875 -27.471875 5.16796875 -29.171875 5.16796875 C-29.501875 6.48796875 -29.831875 7.80796875 -30.171875 9.16796875 C-31.821875 9.49796875 -33.471875 9.82796875 -35.171875 10.16796875 C-35.501875 11.81796875 -35.831875 13.46796875 -36.171875 15.16796875 C-37.491875 15.49796875 -38.811875 15.82796875 -40.171875 16.16796875 C-40.171875 17.81796875 -40.171875 19.46796875 -40.171875 21.16796875 C-40.831875 21.16796875 -41.491875 21.16796875 -42.171875 21.16796875 C-43.72081275 31.25035132 -43.72081275 31.25035132 -42.171875 41.16796875 C-41.511875 41.16796875 -40.851875 41.16796875 -40.171875 41.16796875 C-39.841875 43.14796875 -39.511875 45.12796875 -39.171875 47.16796875 C-38.181875 47.16796875 -37.191875 47.16796875 -36.171875 47.16796875 C-35.841875 48.81796875 -35.511875 50.46796875 -35.171875 52.16796875 C-33.521875 52.49796875 -31.871875 52.82796875 -30.171875 53.16796875 C-29.841875 54.48796875 -29.511875 55.80796875 -29.171875 57.16796875 C-27.521875 57.16796875 -25.871875 57.16796875 -24.171875 57.16796875 C-24.171875 57.82796875 -24.171875 58.48796875 -24.171875 59.16796875 C-17.29818767 59.91261821 -11.00266648 60.35022112 -4.171875 59.16796875 C-4.171875 58.50796875 -4.171875 57.84796875 -4.171875 57.16796875 C-1.201875 56.67296875 -1.201875 56.67296875 1.828125 56.16796875 C1.828125 55.17796875 1.828125 54.18796875 1.828125 53.16796875 C4.303125 52.67296875 4.303125 52.67296875 6.828125 52.16796875 C7.158125 50.51796875 7.488125 48.86796875 7.828125 47.16796875 C8.818125 47.16796875 9.808125 47.16796875 10.828125 47.16796875 C11.158125 45.18796875 11.488125 43.20796875 11.828125 41.16796875 C12.488125 41.16796875 13.148125 41.16796875 13.828125 41.16796875 C14.02397635 38.77255607 14.21004607 36.37704101 14.390625 33.98046875 C14.44669922 33.30693359 14.50277344 32.63339844 14.56054688 31.93945312 C14.83776263 28.15083775 14.79323661 24.84969081 13.828125 21.16796875 C13.168125 21.16796875 12.508125 21.16796875 11.828125 21.16796875 C11.828125 19.51796875 11.828125 17.86796875 11.828125 16.16796875 C10.508125 15.83796875 9.188125 15.50796875 7.828125 15.16796875 C7.333125 12.69296875 7.333125 12.69296875 6.828125 10.16796875 C4.353125 9.67296875 4.353125 9.67296875 1.828125 9.16796875 C1.828125 8.17796875 1.828125 7.18796875 1.828125 6.16796875 C-0.151875 5.83796875 -2.131875 5.50796875 -4.171875 5.16796875 C-4.171875 4.50796875 -4.171875 3.84796875 -4.171875 3.16796875 C-14.25425757 1.619031 -14.25425757 1.619031 -24.171875 3.16796875 Z " fill="#183285" transform="translate(194.171875,148.83203125)"/>
<path d="M0 0 C0.99 0.66 1.98 1.32 3 2 C5.77307876 2.30719771 5.77307876 2.30719771 8.96595764 2.26501465 C10.83575035 2.27742439 10.83575035 2.27742439 12.74331665 2.29008484 C14.12713634 2.28926024 15.51095594 2.28826259 16.89477539 2.28710938 C18.3500863 2.29313262 19.80539372 2.30005662 21.26069641 2.30781555 C24.39549343 2.32271225 27.53022665 2.3314556 30.66505623 2.33552551 C35.61843889 2.34223068 40.57168472 2.3639741 45.52500916 2.38806152 C56.9324188 2.44122601 68.33987059 2.47459373 79.7473526 2.50782013 C90.20393224 2.53847621 100.66045325 2.57326266 111.11695665 2.62413073 C116.04466797 2.647529 120.97228408 2.66123254 125.90004551 2.66762543 C128.96048646 2.6735475 132.02084978 2.68762903 135.08125114 2.70396996 C136.5042915 2.70986513 137.92735076 2.71231422 139.35040283 2.71113014 C141.2872932 2.70997759 143.22417814 2.72210142 145.161026 2.73498535 C146.24668885 2.73791847 147.3323517 2.74085159 148.45091343 2.7438736 C151 3 151 3 153 5 C42.78 5 -67.44 5 -181 5 C-180.67 4.01 -180.34 3.02 -180 2 C-178.83877593 2.00138269 -178.83877593 2.00138269 -177.65409279 2.00279331 C-158.79043261 2.02490741 -139.92677502 2.04144024 -121.06310463 2.05181217 C-111.94066527 2.05696167 -102.81823458 2.06397867 -93.69580078 2.07543945 C-85.74183184 2.08542747 -77.78786917 2.09186322 -69.83389413 2.09408849 C-65.62494846 2.09538861 -61.41602074 2.09843011 -57.20708084 2.10573006 C-53.23941266 2.11255531 -49.27176972 2.1146038 -45.30409622 2.11310768 C-43.85376854 2.1133811 -42.40343995 2.11534742 -40.95311737 2.11920547 C-33.92376421 2.13697547 -27.00479237 2.07258425 -20.02326012 1.19950008 C-16.97226271 0.89866173 -14.04042106 1.178417 -11 1.5 C-6.84813442 2.11734508 -6.84813442 2.11734508 -3 1 C-2.01 1.33 -1.02 1.66 0 2 C0 1.34 0 0.68 0 0 Z " fill="#E4FEF1" transform="translate(194,212)"/>
<path d="M0 0 C110.22 0 220.44 0 334 0 C335.14927198 26.43325564 335.14927198 26.43325564 335.09765625 36.18359375 C335.09553383 37.79948143 335.09553383 37.79948143 335.09336853 39.44801331 C335.08791853 42.77787469 335.07539975 46.10766013 335.0625 49.4375 C335.05746545 51.74153546 335.05290607 54.04557202 335.04882812 56.34960938 C335.03799918 61.89976404 335.02142192 67.44987661 335 73 C334.34 73.33 333.68 73.66 333 74 C332.34 73.67 331.68 73.34 331 73 C331.10763752 64.35056054 331.22029823 55.70120525 331.33933926 47.05191517 C331.39445996 43.03553247 331.44786228 39.01914236 331.49731445 35.00268555 C331.5451185 31.12525467 331.59746649 27.24790913 331.65294075 23.37058067 C331.67329181 21.89266783 331.69201656 20.41473164 331.70907402 18.93677711 C331.73327928 16.86377171 331.76331065 14.7909253 331.79467773 12.71801758 C331.81799416 10.94930046 331.81799416 10.94930046 331.84178162 9.14485168 C332 6 332 6 333 1 C223.11 1 113.22 1 0 1 C0 0.67 0 0.34 0 0 Z " fill="#327754" transform="translate(13,217)"/>
<path d="M0 0 C0.99 0 1.98 0 3 0 C3 23.1 3 46.2 3 70 C112.56 70 222.12 70 335 70 C335 54.82 335 39.64 335 24 C335.33 17.73 335.66 11.46 336 5 C336.33 5 336.66 5 337 5 C337.18797016 27.02721097 336.56506441 48.96248785 336 71 C225.78 71 115.56 71 2 71 C1.67 49.55 1.34 28.1 1 6 C0.67 4.02 0.34 2.04 0 0 Z " fill="#C6845C" transform="translate(11,72)"/>
<path d="M0 0 C109.89 0 219.78 0 333 0 C333 1.65 333 3.3 333 5 C332.34 4.01 331.68 3.02 331 2 C328.54171874 1.5482277 328.54171874 1.5482277 325.61578941 1.63085651 C324.46577017 1.62488337 323.31575093 1.61891022 322.13088262 1.61275607 C320.85658631 1.6214946 319.58229001 1.63023312 318.26937866 1.63923645 C316.91059139 1.63792929 315.55180485 1.63530452 314.19302237 1.63146895 C310.44632731 1.62473438 306.69988763 1.63679713 302.95322514 1.65180314 C298.91777596 1.66471667 294.88234206 1.66037737 290.84687805 1.65809631 C283.85091087 1.6565206 276.85502739 1.66596083 269.85908127 1.68280983 C259.74403787 1.70715504 249.62903509 1.7150005 239.51396556 1.7187738 C223.10433949 1.72534534 206.69475807 1.7453255 190.28515625 1.77368164 C174.34147363 1.80120407 158.39780313 1.82244653 142.45410156 1.83520508 C141.47190546 1.83599325 140.48970937 1.83678142 139.47774975 1.83759347 C134.55053165 1.84150849 129.62331347 1.84529963 124.69609523 1.84902918 C83.79736575 1.88014694 42.89868543 1.9330018 2 2 C1.97433035 9.09431166 1.95700126 16.18861105 1.94506836 23.28295898 C1.94008581 25.68888802 1.93329735 28.09481409 1.92456055 30.50073242 C1.87668422 44.03846687 1.94345465 57.49837479 3 71 C2.34 71 1.68 71 1 71 C0.505 71.99 0.505 71.99 0 73 C-7.69487564 49.91537308 -0.34758358 24.33085072 0 0 Z " fill="#0B703B" transform="translate(13,218)"/>
<path d="M0 0 C7.13664963 1.34653767 12.75719474 4.3507131 19 8 C18.95875 8.78375 18.9175 9.5675 18.875 10.375 C18.71271266 13.16116119 18.71271266 13.16116119 21 15 C22.56463007 21.73994492 21.33267927 26.56865827 19 33 C18.67 33 18.34 33 18 33 C18 31.35 18 29.7 18 28 C16.35 28.66 14.7 29.32 13 30 C14.11213866 26.50470706 15.31573191 23.25530808 17 20 C16.30132812 20.721875 15.60265625 21.44375 14.8828125 22.1875 C13.97273437 23.115625 13.06265625 24.04375 12.125 25 C11.22007812 25.928125 10.31515625 26.85625 9.3828125 27.8125 C7 30 7 30 5 30 C6.50944973 26.15776433 8.76843042 24.48004177 12 22 C13.68528688 20.35216394 15.35697047 18.68997323 17 17 C13.225457 18.83556543 9.63712918 20.94322116 6.0234375 23.07421875 C5.35570312 23.37972656 4.68796875 23.68523437 4 24 C3.34 23.67 2.68 23.34 2 23 C4.97 21.02 7.94 19.04 11 17 C4.565 17.495 4.565 17.495 -2 18 C2.12065766 15.25289489 6.23879359 14.36034469 11 13 C7.04 12.67 3.08 12.34 -1 12 C-1 11.34 -1 10.68 -1 10 C4.94 9.505 4.94 9.505 11 9 C6.71 7.68 2.42 6.36 -2 5 C-1.34 3.35 -0.68 1.7 0 0 Z " fill="#5E6C8A" transform="translate(156,169)"/>
<path d="M0 0 C1.21236328 0.01353516 1.21236328 0.01353516 2.44921875 0.02734375 C3.37154297 0.04474609 3.37154297 0.04474609 4.3125 0.0625 C3.9825 2.3725 3.6525 4.6825 3.3125 7.0625 C2.6525 7.0625 1.9925 7.0625 1.3125 7.0625 C1.3125 11.3525 1.3125 15.6425 1.3125 20.0625 C-0.83295836 15.77158327 -2.21267977 11.62103526 -3.6875 7.0625 C-2.6975 11.6825 -1.7075 16.3025 -0.6875 21.0625 C-3.52717231 18.22282769 -5.5221853 15.42247108 -7.6875 12.0625 C-6.0375 15.3625 -4.3875 18.6625 -2.6875 22.0625 C-3.3475 22.0625 -4.0075 22.0625 -4.6875 22.0625 C-6.25348818 20.34886151 -7.63678042 18.52874657 -9.0546875 16.69140625 C-10.93856076 14.81203987 -12.10513169 14.50415253 -14.6875 14.0625 C-16.875 13.1875 -16.875 13.1875 -18.6875 12.0625 C-19.0175 11.0725 -19.3475 10.0825 -19.6875 9.0625 C-19.0275 8.4025 -18.3675 7.7425 -17.6875 7.0625 C-16.3675 7.0625 -15.0475 7.0625 -13.6875 7.0625 C-13.3575 5.7425 -13.0275 4.4225 -12.6875 3.0625 C-11.0375 3.0625 -9.3875 3.0625 -7.6875 3.0625 C-7.6875 2.4025 -7.6875 1.7425 -7.6875 1.0625 C-4.80538698 0.10179566 -2.98899956 -0.04331883 0 0 Z " fill="#D6DEEA" transform="translate(177.6875,150.9375)"/>
<path d="M0 0 C0.33 0 0.66 0 1 0 C1.89943763 16.13714825 2.12486123 32.21520512 2.0625 48.375 C2.05746649 50.68359276 2.05290691 52.9921866 2.04882812 55.30078125 C2.03798857 60.8672118 2.02140214 66.43360054 2 72 C1.01 72.495 1.01 72.495 0 73 C-0.66 72.67 -1.32 72.34 -2 72 C-1.89236248 63.35056054 -1.77970177 54.70120525 -1.66066074 46.05191517 C-1.60554004 42.03553247 -1.55213772 38.01914236 -1.50268555 34.00268555 C-1.4548815 30.12525467 -1.40253351 26.24790913 -1.34705925 22.37058067 C-1.32670819 20.89266783 -1.30798344 19.41473164 -1.29092598 17.93677711 C-1.26672072 15.86377171 -1.23668935 13.7909253 -1.20532227 11.71801758 C-1.18977798 10.53887283 -1.1742337 9.35972809 -1.15821838 8.14485168 C-1.01600333 5.31809267 -0.64414553 2.7503947 0 0 Z " fill="#428E67" transform="translate(346,218)"/>
<path d="M0 0 C2.31 0 4.62 0 7 0 C7 0.33 7 0.66 7 1 C15.25 1.66 23.5 2.32 32 3 C32 3.33 32 3.66 32 4 C21.11 4 10.22 4 -1 4 C-0.67 27.43 -0.34 50.86 0 75 C-0.66 75 -1.32 75 -2 75 C-2 51.24 -2 27.48 -2 3 C-1.01 3 -0.02 3 1 3 C0.67 2.01 0.34 1.02 0 0 Z " fill="#D96730" transform="translate(16,67)"/>
<path d="M0 0 C0.33 0 0.66 0 1 0 C1 4.95 1 9.9 1 15 C1.66 15 2.32 15 3 15 C3 10.05 3 5.1 3 0 C4.96276436 2.94414653 5.71733962 5.05898636 6.625 8.4375 C6.88539063 9.38496094 7.14578125 10.33242187 7.4140625 11.30859375 C8 14 8 14 8 18 C8.99 17.67 9.98 17.34 11 17 C11 17.66 11 18.32 11 19 C7.37 19.33 3.74 19.66 0 20 C-2.85593426 14.28813149 -2.74134007 9.05706654 -1 2.9375 C-0.67 1.968125 -0.34 0.99875 0 0 Z " fill="#DBE7F2" transform="translate(178,189)"/>
<path d="M0 0 C0.66 0 1.32 0 2 0 C2.66 1.32 3.32 2.64 4 4 C-0.37305149 10.65464358 -7.49376175 13.93671809 -15 16 C-18.4296875 16.1953125 -18.4296875 16.1953125 -21.875 16.125 C-23.02742187 16.10695312 -24.17984375 16.08890625 -25.3671875 16.0703125 C-26.23601562 16.04710937 -27.10484375 16.02390625 -28 16 C-28 15.67 -28 15.34 -28 15 C-24.04 15 -20.08 15 -16 15 C-16 14.01 -16 13.02 -16 12 C-14.68 11.67 -13.36 11.34 -12 11 C-12 10.34 -12 9.68 -12 9 C-10.02 8.67 -8.04 8.34 -6 8 C-6 7.01 -6 6.02 -6 5 C-5.195625 4.731875 -4.39125 4.46375 -3.5625 4.1875 C-2.716875 3.795625 -1.87125 3.40375 -1 3 C-0.67 2.01 -0.34 1.02 0 0 Z " fill="#162D83" transform="translate(202,197)"/>
<path d="M0 0 C1.32 0.33 2.64 0.66 4 1 C5.38458877 7.79707213 4.35001386 12.52086573 2 19 C1.67 19 1.34 19 1 19 C1 17.35 1 15.7 1 14 C-0.65 14.66 -2.3 15.32 -4 16 C-2.88786134 12.50470706 -1.68426809 9.25530808 0 6 C-1.04800781 7.0828125 -1.04800781 7.0828125 -2.1171875 8.1875 C-3.02726563 9.115625 -3.93734375 10.04375 -4.875 11 C-6.23238281 12.3921875 -6.23238281 12.3921875 -7.6171875 13.8125 C-10 16 -10 16 -12 16 C-10.49055027 12.15776433 -8.23156958 10.48004177 -5 8 C-2.20754907 5.54182045 -2.20754907 5.54182045 0 3 C0 2.01 0 1.02 0 0 Z " fill="#647296" transform="translate(173,183)"/>
<path d="M0 0 C2.68930863 0.94125802 3.95731359 1.47526558 5.5 3.875 C5.3579936 6.71512798 4.82548508 8.38677239 3.25 10.75 C1.5 11.875 1.5 11.875 -1 11.75 C-3.68930863 10.80874198 -4.95731359 10.27473442 -6.5 7.875 C-6.3579936 5.03487202 -5.82548508 3.36322761 -4.25 1 C-2.5 -0.125 -2.5 -0.125 0 0 Z " fill="#0A3392" transform="translate(180.5,174.125)"/>
<path d="M0 0 C1.65 0 3.3 0 5 0 C4.01 0.495 4.01 0.495 3 1 C3.28875 1.86625 3.5775 2.7325 3.875 3.625 C4.58127765 5.74383296 5.2713189 7.86822047 5.9375 10 C7.05427045 13.15323421 8.44914892 16.03928429 10 19 C9.34 19 8.68 19 8 19 C6.43401182 17.28636151 5.05071958 15.46624657 3.6328125 13.62890625 C1.74893924 11.74953987 0.58236831 11.44165253 -2 11 C-4.1875 10.125 -4.1875 10.125 -6 9 C-6.33 8.01 -6.66 7.02 -7 6 C-6.34 5.34 -5.68 4.68 -5 4 C-3.68 4 -2.36 4 -1 4 C-0.67 2.68 -0.34 1.36 0 0 Z " fill="#F0F6F9" transform="translate(165,154)"/>
<path d="M0 0 C0.66 0.33 1.32 0.66 2 1 C1.99777939 1.61370956 1.99555878 2.22741913 1.99327087 2.85972595 C1.97088903 9.33413095 1.95595855 15.8085247 1.94506836 22.28295898 C1.94008581 24.68888802 1.93329735 27.09481409 1.92456055 29.50073242 C1.87668422 43.03846687 1.94345465 56.49837479 3 70 C2.34 70 1.68 70 1 70 C0.505 70.99 0.505 70.99 0 72 C-1.15107996 68.54676011 -1.08142811 65.96711475 -1.02172852 62.32543945 C-1.01212097 61.652005 -1.00251343 60.97857056 -0.99261475 60.284729 C-0.95965754 58.06080563 -0.91931291 55.83708072 -0.87890625 53.61328125 C-0.85460192 52.070579 -0.83075851 50.52786942 -0.80735779 48.9851532 C-0.74454798 44.92609306 -0.67547257 40.86716271 -0.60510254 36.80822754 C-0.53439106 32.66583158 -0.46959094 28.52334364 -0.40429688 24.38085938 C-0.27532453 16.2538044 -0.13973444 8.12687702 0 0 Z " fill="#1E6842" transform="translate(13,219)"/>
<path d="M0 0 C2.27996489 2.11298155 3.30568033 3.57973855 4.8125 6.4375 C6.82284795 10.15312365 9.44725252 11.73916069 13 14 C13 14.99 13 15.98 13 17 C12.030625 17.12375 11.06125 17.2475 10.0625 17.375 C9.051875 17.58125 8.04125 17.7875 7 18 C6.67 18.66 6.34 19.32 6 20 C3 18 3 18 2.55859375 16.15234375 C2.51863281 15.42144531 2.47867188 14.69054687 2.4375 13.9375 C2.06529179 9.16082794 1.1319705 4.64877204 0 0 Z " fill="#DAE1EB" transform="translate(183,188)"/>
<path d="M0 0 C6.6 0 13.2 0 20 0 C20 1.98 20 3.96 20 6 C13.4 4.35 6.8 2.7 0 1 C0 0.67 0 0.34 0 0 Z " fill="#ECF1F6" transform="translate(188,181)"/>
<path d="M0 0 C0.99 0.33 1.98 0.66 3 1 C3.88117927 3.87930485 4.58124222 6.62557029 5.1875 9.5625 C5.36474609 10.36880859 5.54199219 11.17511719 5.72460938 12.00585938 C6.16149601 14.0013686 6.58226673 16.00039356 7 18 C4.46426019 15.5474137 2.65291487 13.08441578 0.8125 10.0625 C0.28269531 9.20785156 -0.24710938 8.35320312 -0.79296875 7.47265625 C-2 5 -2 5 -2 1 C-1.34 0.67 -0.68 0.34 0 0 Z " fill="#F1F5F9" transform="translate(170,154)"/>
<path d="M0 0 C6.57534861 0.62031591 12.66692592 2.14897283 19 4 C19 4.33 19 4.66 19 5 C12.73 5 6.46 5 0 5 C0 3.35 0 1.7 0 0 Z " fill="#E8F2FA" transform="translate(153,174)"/>
<path d="M0 0 C2.475 0.495 2.475 0.495 5 1 C4.31195504 7.19240462 2.71951285 13.01955594 1 19 C0.67 19 0.34 19 0 19 C0 12.73 0 6.46 0 0 Z " fill="#EEF6FC" transform="translate(181,152)"/>
<path d="M0 0 C2.31 0 4.62 0 7 0 C7 0.33 7 0.66 7 1 C15.25 1.66 23.5 2.32 32 3 C32 3.33 32 3.66 32 4 C21.44 4 10.88 4 0 4 C0 2.68 0 1.36 0 0 Z " fill="#E56729" transform="translate(16,67)"/>
<path d="M0 0 C2 0 2 0 3.69140625 1.64453125 C4.30886719 2.35996094 4.92632812 3.07539063 5.5625 3.8125 C6.18253906 4.52019531 6.80257812 5.22789062 7.44140625 5.95703125 C9 8 9 8 10 11 C10.99 11 11.98 11 13 11 C12.67 12.32 12.34 13.64 12 15 C11.34 15 10.68 15 10 15 C9.67 15.66 9.34 16.32 9 17 C2.66514806 5.47835991 2.66514806 5.47835991 0 0 Z " fill="#E6EEF7" transform="translate(185,187)"/>
<path d="M0 0 C0.33 0.66 0.66 1.32 1 2 C7.27 2 13.54 2 20 2 C16.930275 3.5348625 14.24100109 4.67468716 11 5.6875 C10.154375 5.95949219 9.30875 6.23148438 8.4375 6.51171875 C5.8767932 7.02468085 4.44171002 6.84216387 2 6 C2.66 6 3.32 6 4 6 C4 5.34 4 4.68 4 4 C2.68 3.67 1.36 3.34 0 3 C0 2.01 0 1.02 0 0 Z " fill="#E9F6FB" transform="translate(151,179)"/>
<path d="M0 0 C0 1.32 0 2.64 0 4 C-6.27 4 -12.54 4 -19 4 C-15.73795243 2.36897622 -12.97278684 1.29041388 -9.5 0.3125 C-8.5615625 0.04050781 -7.623125 -0.23148438 -6.65625 -0.51171875 C-3.99233534 -1.00140894 -2.52388628 -0.88693174 0 0 Z " fill="#E4F1F9" transform="translate(207,175)"/>
<path d="M0 0 C0.6875 2.0625 0.6875 2.0625 1 4 C-1.434964 4.69784331 -3.87227105 5.38353822 -6.3125 6.0625 C-7.00279297 6.26166016 -7.69308594 6.46082031 -8.40429688 6.66601562 C-13.66015625 8.11328125 -13.66015625 8.11328125 -17 7 C-14.73595458 5.63319847 -12.46498979 4.28155555 -10.1875 2.9375 C-9.54490234 2.54755859 -8.90230469 2.15761719 -8.24023438 1.75585938 C-3.33984375 -1.11328125 -3.33984375 -1.11328125 0 0 Z " fill="#D5E4F2" transform="translate(204,169)"/>
<path d="M0 0 C0.33 0.66 0.66 1.32 1 2 C0.14453125 4.34765625 0.14453125 4.34765625 -1.1875 7.0625 C-1.82751953 8.41021484 -1.82751953 8.41021484 -2.48046875 9.78515625 C-4 12 -4 12 -6.17578125 12.80859375 C-6.77777344 12.87175781 -7.37976563 12.93492187 -8 13 C-8 12.01 -8 11.02 -8 10 C-8.66 9.67 -9.32 9.34 -10 9 C-9.01 9 -8.02 9 -7 9 C-6.9071875 7.576875 -6.9071875 7.576875 -6.8125 6.125 C-6.544375 5.09375 -6.27625 4.0625 -6 3 C-3.5 1.6875 -3.5 1.6875 -1 1 C-0.67 0.67 -0.34 0.34 0 0 Z " fill="#14287D" transform="translate(212,187)"/>
<path d="M0 0 C0.66 0.66 1.32 1.32 2 2 C1.86328125 3.95703125 1.86328125 3.95703125 1 6 C-0.70703125 7.44921875 -0.70703125 7.44921875 -2.8125 8.6875 C-3.49957031 9.10386719 -4.18664062 9.52023438 -4.89453125 9.94921875 C-6.93370953 10.96691626 -8.77439588 11.54487646 -11 12 C-7.49102731 7.81576108 -3.91939465 3.80411834 0 0 Z " fill="#F4F6F7" transform="translate(200,161)"/>
<path d="M0 0 C0.33 0 0.66 0 1 0 C1 6.27 1 12.54 1 19 C1.66 19.33 2.32 19.66 3 20 C1.0625 19.6875 1.0625 19.6875 -1 19 C-3.15083538 12.54749386 -2.1500933 6.31589907 0 0 Z " fill="#E8F3FA" transform="translate(178,189)"/>
<path d="M0 0 C3.21524305 1.40844718 5.32183868 3.10344786 7.75 5.625 C8.67039063 6.57246094 8.67039063 6.57246094 9.609375 7.5390625 C10.29773438 8.26222656 10.29773438 8.26222656 11 9 C8 10 8 10 5.9921875 9.14453125 C5.29351562 8.70496094 4.59484375 8.26539063 3.875 7.8125 C3.17117187 7.38582031 2.46734375 6.95914063 1.7421875 6.51953125 C-0.30009453 4.73825836 -0.72381623 3.66793525 -1 1 C-0.67 0.67 -0.34 0.34 0 0 Z " fill="#ECF2F8" transform="translate(159,162)"/>
<path d="M0 0 C0.33 0 0.66 0 1 0 C1.19456705 1.95764383 1.38044247 3.91615321 1.5625 5.875 C1.66691406 6.96554688 1.77132812 8.05609375 1.87890625 9.1796875 C2 12 2 12 1 14 C0.9310528 15.37342831 0.91532292 16.75002102 0.9375 18.125 C0.958125 19.40375 0.97875 20.6825 1 22 C-2 23 -2 23 -5 23 C-3 18 -3 18 -1.96875 15.75 C-0.82653606 12.50758625 -0.58269547 9.61447524 -0.375 6.1875 C-0.26285156 4.44533203 -0.26285156 4.44533203 -0.1484375 2.66796875 C-0.09945312 1.78753906 -0.05046875 0.90710938 0 0 Z " fill="#D8E4F3" transform="translate(213,176)"/>
<path d="M0 0 C2.51083114 1.25541557 2.87125446 2.50063488 4 5 C3.01 5.33 2.02 5.66 1 6 C0.67 7.65 0.34 9.3 0 11 C-0.66 11 -1.32 11 -2 11 C-2.33 11.66 -2.66 12.32 -3 13 C-3.4726477 4.80743982 -3.4726477 4.80743982 -1.5 1.4375 C-0.7575 0.7259375 -0.7575 0.7259375 0 0 Z " fill="#193283" transform="translate(154,159)"/>
<path d="M0 0 C5.28 1.32 10.56 2.64 16 4 C16 4.66 16 5.32 16 6 C13.625 6.875 13.625 6.875 10 7 C6.44460504 5.32811785 3.17099915 3.31871479 0 1 C0 0.67 0 0.34 0 0 Z " fill="#E3EAF8" transform="translate(188,183)"/>
<path d="M0 0 C2.31 0.33 4.62 0.66 7 1 C7.33 1.99 7.66 2.98 8 4 C3.78080897 5.25180279 0.03911435 4.67252421 -4.25 4.0625 C-4.99507812 3.96259766 -5.74015625 3.86269531 -6.5078125 3.75976562 C-8.33945442 3.51319844 -10.16986251 3.25749609 -12 3 C-12 2.67 -12 2.34 -12 2 C-8.04 2 -4.08 2 0 2 C0 1.34 0 0.68 0 0 Z " fill="#DAE2F1" transform="translate(188,144)"/>
<path d="M0 0 C0.33 0 0.66 0 1 0 C1.33 2.97 1.66 5.94 2 9 C-0.31 9 -2.62 9 -5 9 C-5 8.34 -5 7.68 -5 7 C-5.66 6.67 -6.32 6.34 -7 6 C-6.01 5.67 -5.02 5.34 -4 5 C-3.34 5.33 -2.68 5.66 -2 6 C-2 5.01 -2 4.02 -2 3 C-1.34 3 -0.68 3 0 3 C0 2.01 0 1.02 0 0 Z " fill="#CED7E3" transform="translate(175,199)"/>
<path d="M0 0 C-0.99 0.33 -1.98 0.66 -3 1 C-3 1.66 -3 2.32 -3 3 C-9.15901243 4.23180249 -14.78675502 3.73030908 -21 3 C-21 2.67 -21 2.34 -21 2 C-19.41058594 1.80083984 -19.41058594 1.80083984 -17.7890625 1.59765625 C-16.40101721 1.41946125 -15.01299769 1.2410654 -13.625 1.0625 C-12.92632812 0.97548828 -12.22765625 0.88847656 -11.5078125 0.79882812 C-1.61694281 -0.48508284 -1.61694281 -0.48508284 0 0 Z " fill="#CFD9EE" transform="translate(197,211)"/>
<path d="M0 0 C1.32 0.33 2.64 0.66 4 1 C3.67 2.32 3.34 3.64 3 5 C2.01 5 1.02 5 0 5 C0 6.32 0 7.64 0 9 C-0.99 8.67 -1.98 8.34 -3 8 C-3.33 5.69 -3.66 3.38 -4 1 C-2.02 1.66 -0.04 2.32 2 3 C2 2.34 2 1.68 2 1 C1.34 0.67 0.68 0.34 0 0 Z " fill="#E8F4FB" transform="translate(202,191)"/>
<path d="M0 0 C0.66 0.33 1.32 0.66 2 1 C2 1.99 2 2.98 2 4 C1.34 4 0.68 4 0 4 C-0.33 4.66 -0.66 5.32 -1 6 C-1.33 6.66 -1.66 7.32 -2 8 C-3.9375 7.6875 -3.9375 7.6875 -6 7 C-6.33 6.01 -6.66 5.02 -7 4 C-5.35 3.67 -3.7 3.34 -2 3 C-2 2.34 -2 1.68 -2 1 C-1.34 0.67 -0.68 0.34 0 0 Z " fill="#CBD3DF" transform="translate(206,186)"/>
<path d="M0 0 C0.99386719 0.00902344 1.98773438 0.01804688 3.01171875 0.02734375 C4.15060547 0.04474609 4.15060547 0.04474609 5.3125 0.0625 C5.3125 0.3925 5.3125 0.7225 5.3125 1.0625 C4.57 1.206875 3.8275 1.35125 3.0625 1.5 C0.79222261 1.96437492 -1.44509479 2.48113569 -3.6875 3.0625 C-3.6875 3.7225 -3.6875 4.3825 -3.6875 5.0625 C-5.3375 5.0625 -6.9875 5.0625 -8.6875 5.0625 C-8.6875 3.7425 -8.6875 2.4225 -8.6875 1.0625 C-5.53819107 0.01273036 -3.29935544 -0.03881595 0 0 Z " fill="#092479" transform="translate(180.6875,146.9375)"/>
<path d="M0 0 C0.99 0 1.98 0 3 0 C3 7.92 3 15.84 3 24 C2.67 24 2.34 24 2 24 C1.93941406 22.77023438 1.87882813 21.54046875 1.81640625 20.2734375 C1.73194995 18.64061573 1.64730453 17.00780373 1.5625 15.375 C1.52318359 14.56675781 1.48386719 13.75851563 1.44335938 12.92578125 C1.21203918 8.54849135 0.83079083 4.31452719 0 0 Z " fill="#CC926D" transform="translate(11,72)"/>
<path d="M0 0 C0.33 0.99 0.66 1.98 1 3 C2.65 2.34 4.3 1.68 6 1 C6 1.99 6 2.98 6 4 C5.21625 4.28875 4.4325 4.5775 3.625 4.875 C0.90328368 5.84912254 0.90328368 5.84912254 -1 8 C-1.66 8 -2.32 8 -3 8 C-3.75 6.25 -3.75 6.25 -4 4 C-2.0625 1.75 -2.0625 1.75 0 0 Z " fill="#223B87" transform="translate(158,154)"/>
<path d="M0 0 C0.33 0 0.66 0 1 0 C1.33 5.61 1.66 11.22 2 17 C1.34 17 0.68 17 0 17 C-0.33 17.66 -0.66 18.32 -1 19 C-2.30150781 15.09547658 -1.62254053 11.79539691 -1.0625 7.8125 C-0.96259766 7.06291016 -0.86269531 6.31332031 -0.75976562 5.54101562 C-0.51260359 3.69318518 -0.25710389 1.8464734 0 0 Z " fill="#20794B" transform="translate(14,272)"/>
<path d="M0 0 C-0.99 0.33 -1.98 0.66 -3 1 C-3 1.99 -3 2.98 -3 4 C-3.66 4 -4.32 4 -5 4 C-5 4.66 -5 5.32 -5 6 C-6.32 6 -7.64 6 -9 6 C-9 4.35 -9 2.7 -9 1 C-5.57367167 -0.61798838 -3.61944899 -1.34053666 0 0 Z " fill="#203C86" transform="translate(175,148)"/>
<path d="M0 0 C0.66 0 1.32 0 2 0 C2.66 1.32 3.32 2.64 4 4 C1.1875 6.0625 1.1875 6.0625 -2 8 C-2.99 7.67 -3.98 7.34 -5 7 C-5 6.34 -5 5.68 -5 5 C-4.360625 4.731875 -3.72125 4.46375 -3.0625 4.1875 C-0.66868314 3.11332248 -0.66868314 3.11332248 0 0 Z " fill="#0D267B" transform="translate(202,197)"/>
<path d="M0 0 C0 4.29 0 8.58 0 13 C-2.05883923 8.88232154 -2.96165128 5.45006595 -4 1 C-2 0 -2 0 0 0 Z " fill="#E2F0FA" transform="translate(179,158)"/>
<path d="M0 0 C-0.67546875 0.39832031 -1.3509375 0.79664063 -2.046875 1.20703125 C-3.38492188 2.00173828 -3.38492188 2.00173828 -4.75 2.8125 C-5.63171875 3.33457031 -6.5134375 3.85664063 -7.421875 4.39453125 C-9.71972797 5.82546696 -11.86506946 7.33894423 -14 9 C-14 8.01 -14 7.02 -14 6 C-13.34 6 -12.68 6 -12 6 C-12 5.34 -12 4.68 -12 4 C-10.390625 2.67578125 -10.390625 2.67578125 -8.25 1.3125 C-7.55390625 0.85488281 -6.8578125 0.39726562 -6.140625 -0.07421875 C-3.60909275 -1.16906025 -2.53899138 -0.9435441 0 0 Z " fill="#E1EDFB" transform="translate(168,149)"/>
<path d="M0 0 C3.96 0 7.92 0 12 0 C12.33 1.32 12.66 2.64 13 4 C8.71 3.01 4.42 2.02 0 1 C0 0.67 0 0.34 0 0 Z " fill="#DCEAF6" transform="translate(188,181)"/>
<path d="M0 0 C2 3 2 3 3 6 C2.00390625 8.04296875 2.00390625 8.04296875 0.5625 10.1875 C0.08941406 10.90292969 -0.38367188 11.61835938 -0.87109375 12.35546875 C-1.24363281 12.89816406 -1.61617187 13.44085938 -2 14 C-3.49341969 11.01316063 -2.40648676 9.04839022 -1.5625 5.875 C-1.27503906 4.77929688 -0.98757812 3.68359375 -0.69140625 2.5546875 C-0.46324219 1.71164063 -0.23507813 0.86859375 0 0 Z " fill="#D4E0F1" transform="translate(186,158)"/>
<path d="M0 0 C1.69433918 3.0469629 2.49467112 5.82821466 3.125 9.25 C3.29257813 10.14203125 3.46015625 11.0340625 3.6328125 11.953125 C3.75398437 12.62859375 3.87515625 13.3040625 4 14 C1.12210263 11.25991743 -0.5721789 8.75742394 -2 5 C-1.1875 2.125 -1.1875 2.125 0 0 Z " fill="#D1E0F1" transform="translate(173,158)"/>
<path d="M0 0 C2 3 2 3 2 7 C2.99 6.67 3.98 6.34 5 6 C5 6.66 5 7.32 5 8 C2.69 7.67 0.38 7.34 -2 7 C-2 5.02 -2 3.04 -2 1 C-1.34 0.67 -0.68 0.34 0 0 Z " fill="#EFF4F8" transform="translate(184,200)"/>
<path d="M0 0 C0.33 0 0.66 0 1 0 C0.67 5.94 0.34 11.88 0 18 C-2.83360193 13.74959711 -2.41305774 9.98846654 -2 5 C-1 1.875 -1 1.875 0 0 Z " fill="#F3F9FE" transform="translate(146,170)"/>
<path d="M0 0 C0.33 0 0.66 0 1 0 C1.08153933 1.58246707 1.13943557 3.16616273 1.1875 4.75 C1.22230469 5.63171875 1.25710937 6.5134375 1.29296875 7.421875 C0.94923684 10.44671583 -0.00227459 11.75583602 -2 14 C-2.66 13.67 -3.32 13.34 -4 13 C-3.67 12.4225 -3.34 11.845 -3 11.25 C-1.72924102 8.80116138 -1.72924102 8.80116138 -2 5 C-1.34 5 -0.68 5 0 5 C0 3.35 0 1.7 0 0 Z " fill="#072278" transform="translate(212,177)"/>
<path d="M0 0 C0.66 0.33 1.32 0.66 2 1 C2 1.99 2 2.98 2 4 C-1.42232972 5.14077657 -4.08673217 5.09815117 -7.6875 5.0625 C-9.45673828 5.04896484 -9.45673828 5.04896484 -11.26171875 5.03515625 C-12.16535156 5.02355469 -13.06898438 5.01195312 -14 5 C-14 4.67 -14 4.34 -14 4 C-10.04 4 -6.08 4 -2 4 C-2 3.01 -2 2.02 -2 1 C-1.34 0.67 -0.68 0.34 0 0 Z " fill="#0E266F" transform="translate(188,208)"/>
<path d="M0 0 C0.99 0.99 1.98 1.98 3 3 C1.02 5.31 -0.96 7.62 -3 10 C-3.66 9.67 -4.32 9.34 -5 9 C-3.35 6.03 -1.7 3.06 0 0 Z " fill="#CBD8EA" transform="translate(190,163)"/>
<path d="M0 0 C0.99 0.33 1.98 0.66 3 1 C3 1.66 3 2.32 3 3 C3.96113866 4.36161311 4.95884159 5.69855198 6 7 C2.86248779 7 1.60242414 6.64820195 -1 5 C-1.33 4.01 -1.66 3.02 -2 2 C-1.34 1.34 -0.68 0.68 0 0 Z " fill="#B4BED6" transform="translate(160,158)"/>
<path d="M0 0 C3.5218253 1.95656961 6.34442785 3.95100975 9 7 C9 7.66 9 8.32 9 9 C5.18063472 7.44396229 2.73955562 5.04395069 0 2 C0 1.34 0 0.68 0 0 Z " fill="#50587C" transform="translate(187,187)"/>
<path d="M0 0 C-2.36292656 2.52588702 -3.66462511 3.88820837 -7 5 C-7.33 4.01 -7.66 3.02 -8 2 C-8.66 1.67 -9.32 1.34 -10 1 C-6.59437148 0.22157062 -3.49234244 -0.09978121 0 0 Z " fill="#E4EEF6" transform="translate(168,185)"/>
<path d="M0 0 C0.99 0.33 1.98 0.66 3 1 C3 2.65 3 4.3 3 6 C-0.465 7.485 -0.465 7.485 -4 9 C-4.66 8.34 -5.32 7.68 -6 7 C-4.7934375 6.6596875 -4.7934375 6.6596875 -3.5625 6.3125 C-2.716875 5.879375 -1.87125 5.44625 -1 5 C-0.10613836 2.45224694 -0.10613836 2.45224694 0 0 Z " fill="#9EB5E4" transform="translate(172,177)"/>
<path d="M0 0 C0 2.97 0 5.94 0 9 C-2.97 8.505 -2.97 8.505 -6 8 C-6 7.34 -6 6.68 -6 6 C-4.68 6 -3.36 6 -2 6 C-2 4.68 -2 3.36 -2 2 C-2.66 1.67 -3.32 1.34 -4 1 C-2 0 -2 0 0 0 Z " fill="#C3D0E1" transform="translate(209,173)"/>
<path d="M0 0 C2.31 0 4.62 0 7 0 C7 0.33 7 0.66 7 1 C9.64 1.33 12.28 1.66 15 2 C15 2.33 15 2.66 15 3 C10.38 3 5.76 3 1 3 C0.67 2.01 0.34 1.02 0 0 Z " fill="#DD9168" transform="translate(16,67)"/>
<path d="M0 0 C1.74627478 2.61941217 2.38722388 4.03824877 3 7 C1.68 7.33 0.36 7.66 -1 8 C-0.67 6.68 -0.34 5.36 0 4 C-0.99 4 -1.98 4 -3 4 C-2.67 3.01 -2.34 2.02 -2 1 C-1.34 0.67 -0.68 0.34 0 0 Z " fill="#C4CBDD" transform="translate(198,194)"/>
<path d="M0 0 C0.99 0 1.98 0 3 0 C3 3 3 6 3 9 C2.67 8.34 2.34 7.68 2 7 C1.34 7 0.68 7 0 7 C-1.125 2.25 -1.125 2.25 0 0 Z " fill="#CBD6EB" transform="translate(152,183)"/>
<path d="M0 0 C2.31 0.66 4.62 1.32 7 2 C7 2.66 7 3.32 7 4 C4.36 4 1.72 4 -1 4 C-0.67 2.68 -0.34 1.36 0 0 Z " fill="#F0F5F8" transform="translate(156,169)"/>
<path d="M0 0 C0.99 0.33 1.98 0.66 3 1 C3.6875 3.0625 3.6875 3.0625 4 5 C2.02 5 0.04 5 -2 5 C-1.125 1.125 -1.125 1.125 0 0 Z " fill="#F0F3FD" transform="translate(201,168)"/>
<path d="M0 0 C3.36179774 1.44077046 5.59156268 3.24750021 8 6 C8 6.66 8 7.32 8 8 C4.63820226 6.55922954 2.40843732 4.75249979 0 2 C0 1.34 0 0.68 0 0 Z " fill="#4A567B" transform="translate(165,165)"/>
<path d="M0 0 C2.97 0.99 5.94 1.98 9 3 C8.34 3.66 7.68 4.32 7 5 C3.55834679 4.64700993 1.93127462 3.95418308 -1 2 C-0.67 1.34 -0.34 0.68 0 0 Z " fill="#E2EBF3" transform="translate(163,209)"/>
<path d="M0 0 C0.33 0.66 0.66 1.32 1 2 C4.465 1.505 4.465 1.505 8 1 C6.37660195 2.70884005 4.70680947 4.37446717 3 6 C2.34 6 1.68 6 1 6 C0.67 4.02 0.34 2.04 0 0 Z " fill="#253C8B" transform="translate(196,202)"/>
<path d="M0 0 C0.33 1.32 0.66 2.64 1 4 C1.66 4 2.32 4 3 4 C3 4.66 3 5.32 3 6 C2.34 6 1.68 6 1 6 C0.67 7.65 0.34 9.3 0 11 C-0.33 11 -0.66 11 -1 11 C-1.125 3.375 -1.125 3.375 0 0 Z " fill="#06247F" transform="translate(149,179)"/>
<path d="M0 0 C1.65 0.33 3.3 0.66 5 1 C1.8745041 3.64465038 -1.08788267 4.84414715 -5 6 C-3.35 4.02 -1.7 2.04 0 0 Z " fill="#E0EAF7" transform="translate(194,167)"/>
<path d="M0 0 C0.66 0 1.32 0 2 0 C1.5251065 4.11574371 0.9789756 7.36383344 -1 11 C-1.02688151 9.35425434 -1.04634123 7.70838587 -1.0625 6.0625 C-1.07410156 5.14597656 -1.08570313 4.22945312 -1.09765625 3.28515625 C-1 1 -1 1 0 0 Z " fill="#DFF3FA" transform="translate(182,160)"/>
<path d="M0 0 C3.63 0 7.26 0 11 0 C10.01 0.495 10.01 0.495 9 1 C9 1.66 9 2.32 9 3 C6.03 2.67 3.06 2.34 0 2 C0 1.34 0 0.68 0 0 Z " fill="#304A98" transform="translate(177,208)"/>
<path d="M0 0 C2.92824652 2.92824652 4.27239967 5.2979993 6 9 C4.68 9 3.36 9 2 9 C1.34 6.03 0.68 3.06 0 0 Z " fill="#D1DEF2" transform="translate(183,188)"/>
<path d="M0 0 C0.66 0.33 1.32 0.66 2 1 C0.8553125 1.8971875 0.8553125 1.8971875 -0.3125 2.8125 C-2.3483575 4.46959332 -4.1978279 6.10297674 -6 8 C-6 7.34 -6 6.68 -6 6 C-6.66 5.67 -7.32 5.34 -8 5 C-6.71475739 4.13619741 -5.42157581 3.28419631 -4.125 2.4375 C-3.04605469 1.72400391 -3.04605469 1.72400391 -1.9453125 0.99609375 C-1.30335938 0.66738281 -0.66140625 0.33867187 0 0 Z " fill="#BACAE5" transform="translate(173,184)"/>
<path d="M0 0 C0.66 0 1.32 0 2 0 C2.33 2.97 2.66 5.94 3 9 C2.01 9.66 1.02 10.32 0 11 C0 7.37 0 3.74 0 0 Z " fill="#304996" transform="translate(208,177)"/>
<path d="M0 0 C2.97 0.495 2.97 0.495 6 1 C6 1.66 6 2.32 6 3 C6.66 3.33 7.32 3.66 8 4 C6.25 4.75 6.25 4.75 4 5 C1.75 3.125 1.75 3.125 0 1 C0 0.67 0 0.34 0 0 Z " fill="#788CBC" transform="translate(169,172)"/>
<path d="M0 0 C1.2065625 0.0309375 1.2065625 0.0309375 2.4375 0.0625 C1.4475 0.5575 1.4475 0.5575 0.4375 1.0625 C1.0975 3.0425 1.7575 5.0225 2.4375 7.0625 C1.4475 7.5575 1.4475 7.5575 0.4375 8.0625 C-1.5625 5.0625 -1.5625 5.0625 -1.5625 2.0625 C-2.2225 1.7325 -2.8825 1.4025 -3.5625 1.0625 C-2.5625 0.0625 -2.5625 0.0625 0 0 Z " fill="#AFBACD" transform="translate(167.5625,153.9375)"/>
<path d="M0 0 C0.33 0.66 0.66 1.32 1 2 C1.66 2 2.32 2 3 2 C2.67 3.98 2.34 5.96 2 8 C0.4375 6.8125 0.4375 6.8125 -1 5 C-0.6875 2.3125 -0.6875 2.3125 0 0 Z " fill="#112887" transform="translate(151,188)"/>
<path d="M0 0 C0.99 0 1.98 0 3 0 C3 1.98 3 3.96 3 6 C2.34 6 1.68 6 1 6 C0.67 6.66 0.34 7.32 0 8 C0 5.36 0 2.72 0 0 Z " fill="#0B287D" transform="translate(151,164)"/>
<path d="M0 0 C2.625 0.375 2.625 0.375 5 1 C5 1.66 5 2.32 5 3 C5.66 3.33 6.32 3.66 7 4 C4 5 4 5 0.8125 3.5625 C-0.115625 3.046875 -1.04375 2.53125 -2 2 C-1.34 1.34 -0.68 0.68 0 0 Z " fill="#C9D2E7" transform="translate(185,151)"/>
<path d="M0 0 C1.32 0.33 2.64 0.66 4 1 C1.525 4.465 1.525 4.465 -1 8 C-2 4 -2 4 -1.0625 1.75 C-0.711875 1.1725 -0.36125 0.595 0 0 Z " fill="#10399F" transform="translate(178,174)"/>
<path d="M0 0 C-0.33 0.66 -0.66 1.32 -1 2 C-3.5625 2.625 -3.5625 2.625 -6 3 C-6.33 2.01 -6.66 1.02 -7 0 C-3.86650268 -1.04449911 -3.01031744 -0.93423645 0 0 Z " fill="#EDF1F6" transform="translate(207,175)"/>
<path d="M0 0 C0 3 0 3 -1.3125 4.38671875 C-2.875 5.59114583 -4.4375 6.79557292 -6 8 C-5.6875 6.0625 -5.6875 6.0625 -5 4 C-4.01 3.67 -3.02 3.34 -2 3 C-2 2.34 -2 1.68 -2 1 C-1.34 0.67 -0.68 0.34 0 0 Z " fill="#788398" transform="translate(198,161)"/>
<path d="M0 0 C0.99 0.99 1.98 1.98 3 3 C2.67 3.99 2.34 4.98 2 6 C1.01 6 0.02 6 -1 6 C-1 5.01 -1 4.02 -1 3 C-1.66 2.67 -2.32 2.34 -3 2 C-2.01 2 -1.02 2 0 2 C0 1.34 0 0.68 0 0 Z " fill="#233E8E" transform="translate(205,194)"/>
<path d="M0 0 C2.29633824 3.44450737 2.54016485 5.93812283 3 10 C0.9375 8.375 0.9375 8.375 -1 6 C-0.75 2.75 -0.75 2.75 0 0 Z " fill="#E9F4FB" transform="translate(147,189)"/>
<path d="M0 0 C0.33 0.66 0.66 1.32 1 2 C0.0625 4.625 0.0625 4.625 -1 7 C-1.99 7 -2.98 7 -4 7 C-3.6875 4.625 -3.6875 4.625 -3 2 C-2.01 1.34 -1.02 0.68 0 0 Z " fill="#294296" transform="translate(212,187)"/>
<path d="M0 0 C0.66 0 1.32 0 2 0 C3.32 2.64 4.64 5.28 6 8 C5.34 8 4.68 8 4 8 C2.7109375 6.46875 2.7109375 6.46875 1.375 4.5 C0.70597656 3.52546875 0.70597656 3.52546875 0.0234375 2.53125 C-0.31429687 2.0259375 -0.65203125 1.520625 -1 1 C-0.67 0.67 -0.34 0.34 0 0 Z " fill="#D5E4F5" transform="translate(169,165)"/>
<path d="M0 0 C0.66 0 1.32 0 2 0 C2.33 3.3 2.66 6.6 3 10 C1.00902154 7.01353231 0.05875074 4.40312738 -1 1 C-0.67 0.67 -0.34 0.34 0 0 Z " fill="#E0EDF9" transform="translate(210,162)"/>
<path d="M0 0 C1.485 0.99 1.485 0.99 3 2 C2.34 2 1.68 2 1 2 C0.67 2.66 0.34 3.32 0 4 C0 2.68 0 1.36 0 0 Z " fill="#F6D4BD" transform="translate(12,67)"/>
</svg>
